# xmcd
# Copyright (C) 1995-1998 Ti Kan
#
# Track frame offsets:
#       150
#       14345
#       26613
#       38981
#       53451
#       66802
#       82114
#       92530
#       103825
#       112736
#       125311
#       138807
#       145168
#
# Disc length: 2137 seconds
#
# Revision: 0
# Processed by: cddbd v1.5.2PL0 Copyright (c) Steve Scherf et al.
# Submitted via: CD-Import v1.0
#
DISCID=a108570d
DTITLE=Hillbilly Moon Explosion - Buy Beg Or Steal
DYEAR=11
DGENRE=
TTITLE0=Buy Beg Or Steal
TTITLE1=Broken Heart
TTITLE2=She Kicked Me To The Curb
TTITLE3=Natascia
TTITLE4=Trouble And Strife
TTITLE5=My Love For Evermore
TTITLE6=Night Of The Living Ted
TTITLE7=Imagine A World
TTITLE8=Goin' To Milano
TTITLE9=Touch Me
TTITLE10=Rock 'n' Roll Girl
TTITLE11=Chalk From Breakdown
TTITLE12=Enola Gay
EXTD=
EXTT0=
EXTT1=
EXTT2=
EXTT3=
EXTT4=
EXTT5=
EXTT6=
EXTT7=
EXTT8=
EXTT9=
EXTT10=
EXTT11=
EXTT12=
PLAYORDER=
